<svg xmlns="http://www.w3.org/2000/svg" version="1.1" xmlns:xlink="http://www.w3.org/1999/xlink" width="200" height="200"><svg xmlns="http://www.w3.org/2000/svg" version="1.1" xmlns:xlink="http://www.w3.org/1999/xlink" viewBox="0 0 200 200"><rect width="200" height="200" fill="url('#gradient')"></rect><defs><linearGradient id="SvgjsLinearGradient1001" gradientTransform="rotate(45 0.5 0.5)"><stop offset="0%" stop-color="#dee90b"></stop><stop offset="100%" stop-color="#d9e241"></stop></linearGradient></defs><g><g fill="#1b3855" transform="matrix(5.8570066730219255,0,0,5.8570066730219255,3.7103809090997117,143.92755004766445)" stroke="#0e5278" stroke-width="0.2"><path d="M5.75 0L1.07 0L1.07-14.22L5.65-14.22Q7.54-14.22 9.04-13.36Q10.55-12.51 11.39-10.95Q12.24-9.39 12.25-7.46L12.25-7.46L12.25-6.81Q12.25-4.85 11.42-3.31Q10.60-1.76 9.10-0.88Q7.60-0.01 5.75 0L5.75 0ZM5.65-11.57L4.50-11.57L4.50-2.64L5.69-2.64Q7.17-2.64 7.96-3.69Q8.75-4.74 8.75-6.81L8.75-6.81L8.75-7.42Q8.75-9.48 7.96-10.53Q7.17-11.57 5.65-11.57L5.65-11.57ZM16.93-15L18.89-11.93L16.21-11.93L13.46-15L16.93-15ZM26.56 0L20.79 0L20.79-14.22L25.90-14.22Q28.64-14.22 30.07-13.21Q31.50-12.21 31.50-10.29L31.50-10.29Q31.50-9.19 31.00-8.41Q30.49-7.63 29.50-7.26L29.50-7.26Q30.62-6.96 31.21-6.16Q31.81-5.36 31.81-4.21L31.81-4.21Q31.81-2.12 30.48-1.07Q29.16-0.02 26.56 0L26.56 0ZM26.62-6.04L24.22-6.04L24.22-2.64L26.46-2.64Q27.39-2.64 27.89-3.06Q28.39-3.49 28.39-4.26L28.39-4.26Q28.39-6.04 26.62-6.04L26.62-6.04ZM24.22-11.57L24.22-8.29L26.01-8.29Q27.13-8.30 27.61-8.70Q28.09-9.10 28.09-9.88L28.09-9.88Q28.09-10.78 27.57-11.18Q27.05-11.57 25.90-11.57L25.90-11.57L24.22-11.57Z"></path></g></g></svg><style>@media (prefers-color-scheme: light) { :root { filter: contrast(1) brightness(1); } }
@media (prefers-color-scheme: dark) { :root { filter: none; } }
</style></svg>